<?xml version='1.0' encoding='UTF-8'?>
<svg width="65mm" height="65mm" version="1.1" viewBox="0 0 65 65" xmlns="http://www.w3.org/2000/svg"><path d="M4,4H5V5H4zM5,4H6V5H5zM6,4H7V5H6zM7,4H8V5H7zM8,4H9V5H8zM9,4H10V5H9zM10,4H11V5H10zM13,4H14V5H13zM15,4H16V5H15zM17,4H18V5H17zM18,4H19V5H18zM21,4H22V5H21zM23,4H24V5H23zM24,4H25V5H24zM25,4H26V5H25zM26,4H27V5H26zM27,4H28V5H27zM28,4H29V5H28zM31,4H32V5H31zM34,4H35V5H34zM40,4H41V5H40zM41,4H42V5H41zM43,4H44V5H43zM44,4H45V5H44zM45,4H46V5H45zM46,4H47V5H46zM47,4H48V5H47zM48,4H49V5H48zM49,4H50V5H49zM50,4H51V5H50zM51,4H52V5H51zM54,4H55V5H54zM55,4H56V5H55zM56,4H57V5H56zM57,4H58V5H57zM58,4H59V5H58zM59,4H60V5H59zM60,4H61V5H60zM4,5H5V6H4zM10,5H11V6H10zM15,5H16V6H15zM18,5H19V6H18zM19,5H20V6H19zM22,5H23V6H22zM23,5H24V6H23zM24,5H25V6H24zM25,5H26V6H25zM30,5H31V6H30zM31,5H32V6H31zM33,5H34V6H33zM35,5H36V6H35zM37,5H38V6H37zM38,5H39V6H38zM39,5H40V6H39zM40,5H41V6H40zM41,5H42V6H41zM43,5H44V6H43zM44,5H45V6H44zM49,5H50V6H49zM51,5H52V6H51zM54,5H55V6H54zM60,5H61V6H60zM4,6H5V7H4zM6,6H7V7H6zM7,6H8V7H7zM8,6H9V7H8zM10,6H11V7H10zM12,6H13V7H12zM13,6H14V7H13zM14,6H15V7H14zM20,6H21V7H20zM23,6H24V7H23zM24,6H25V7H24zM26,6H27V7H26zM27,6H28V7H27zM28,6H29V7H28zM32,6H33V7H32zM34,6H35V7H34zM36,6H37V7H36zM37,6H38V7H37zM39,6H40V7H39zM41,6H42V7H41zM43,6H44V7H43zM44,6H45V7H44zM47,6H48V7H47zM48,6H49V7H48zM49,6H50V7H49zM50,6H51V7H50zM51,6H52V7H51zM54,6H55V7H54zM56,6H57V7H56zM57,6H58V7H57zM58,6H59V7H58zM60,6H61V7H60zM4,7H5V8H4zM6,7H7V8H6zM7,7H8V8H7zM8,7H9V8H8zM10,7H11V8H10zM12,7H13V8H12zM13,7H14V8H13zM14,7H15V8H14zM16,7H17V8H16zM19,7H20V8H19zM20,7H21V8H20zM21,7H22V8H21zM23,7H24V8H23zM30,7H31V8H30zM31,7H32V8H31zM33,7H34V8H33zM34,7H35V8H34zM35,7H36V8H35zM37,7H38V8H37zM38,7H39V8H38zM40,7H41V8H40zM42,7H43V8H42zM45,7H46V8H45zM46,7H47V8H46zM51,7H52V8H51zM54,7H55V8H54zM56,7H57V8H56zM57,7H58V8H57zM58,7H59V8H58zM60,7H61V8H60zM4,8H5V9H4zM6,8H7V9H6zM7,8H8V9H7zM8,8H9V9H8zM10,8H11V9H10zM12,8H13V9H12zM17,8H18V9H17zM19,8H20V9H19zM21,8H22V9H21zM22,8H23V9H22zM23,8H24V9H23zM26,8H27V9H26zM27,8H28V9H27zM28,8H29V9H28zM30,8H31V9H30zM31,8H32V9H31zM32,8H33V9H32zM33,8H34V9H33zM34,8H35V9H34zM35,8H36V9H35zM37,8H38V9H37zM40,8H41V9H40zM41,8H42V9H41zM45,8H46V9H45zM46,8H47V9H46zM49,8H50V9H49zM51,8H52V9H51zM54,8H55V9H54zM56,8H57V9H56zM57,8H58V9H57zM58,8H59V9H58zM60,8H61V9H60zM4,9H5V10H4zM10,9H11V10H10zM12,9H13V10H12zM13,9H14V10H13zM14,9H15V10H14zM15,9H16V10H15zM16,9H17V10H16zM19,9H20V10H19zM23,9H24V10H23zM24,9H25V10H24zM25,9H26V10H25zM28,9H29V10H28zM29,9H30V10H29zM30,9H31V10H30zM34,9H35V10H34zM38,9H39V10H38zM42,9H43V10H42zM47,9H48V10H47zM50,9H51V10H50zM54,9H55V10H54zM60,9H61V10H60zM4,10H5V11H4zM5,10H6V11H5zM6,10H7V11H6zM7,10H8V11H7zM8,10H9V11H8zM9,10H10V11H9zM10,10H11V11H10zM12,10H13V11H12zM14,10H15V11H14zM16,10H17V11H16zM18,10H19V11H18zM20,10H21V11H20zM22,10H23V11H22zM24,10H25V11H24zM26,10H27V11H26zM28,10H29V11H28zM30,10H31V11H30zM32,10H33V11H32zM34,10H35V11H34zM36,10H37V11H36zM38,10H39V11H38zM40,10H41V11H40zM42,10H43V11H42zM44,10H45V11H44zM46,10H47V11H46zM48,10H49V11H48zM50,10H51V11H50zM52,10H53V11H52zM54,10H55V11H54zM55,10H56V11H55zM56,10H57V11H56zM57,10H58V11H57zM58,10H59V11H58zM59,10H60V11H59zM60,10H61V11H60zM12,11H13V12H12zM13,11H14V12H13zM17,11H18V12H17zM27,11H28V12H27zM29,11H30V12H29zM30,11H31V12H30zM34,11H35V12H34zM36,11H37V12H36zM39,11H40V12H39zM44,11H45V12H44zM45,11H46V12H45zM46,11H47V12H46zM48,11H49V12H48zM49,11H50V12H49zM50,11H51V12H50zM51,11H52V12H51zM52,11H53V12H52zM4,12H5V13H4zM6,12H7V13H6zM7,12H8V13H7zM8,12H9V13H8zM9,12H10V13H9zM10,12H11V13H10zM13,12H14V13H13zM14,12H15V13H14zM16,12H17V13H16zM18,12H19V13H18zM19,12H20V13H19zM21,12H22V13H21zM22,12H23V13H22zM24,12H25V13H24zM25,12H26V13H25zM30,12H31V13H30zM31,12H32V13H31zM32,12H33V13H32zM33,12H34V13H33zM34,12H35V13H34zM40,12H41V13H40zM41,12H42V13H41zM43,12H44V13H43zM45,12H46V13H45zM46,12H47V13H46zM47,12H48V13H47zM49,12H50V13H49zM50,12H51V13H50zM51,12H52V13H51zM54,12H55V13H54zM55,12H56V13H55zM56,12H57V13H56zM57,12H58V13H57zM58,12H59V13H58zM4,13H5V14H4zM11,13H12V14H11zM12,13H13V14H12zM13,13H14V14H13zM14,13H15V14H14zM17,13H18V14H17zM19,13H20V14H19zM20,13H21V14H20zM21,13H22V14H21zM23,13H24V14H23zM24,13H25V14H24zM27,13H28V14H27zM28,13H29V14H28zM31,13H32V14H31zM33,13H34V14H33zM34,13H35V14H34zM35,13H36V14H35zM36,13H37V14H36zM39,13H40V14H39zM43,13H44V14H43zM46,13H47V14H46zM48,13H49V14H48zM49,13H50V14H49zM52,13H53V14H52zM53,13H54V14H53zM57,13H58V14H57zM60,13H61V14H60zM5,14H6V15H5zM6,14H7V15H6zM8,14H9V15H8zM10,14H11V15H10zM14,14H15V15H14zM15,14H16V15H15zM19,14H20V15H19zM21,14H22V15H21zM23,14H24V15H23zM26,14H27V15H26zM27,14H28V15H27zM29,14H30V15H29zM31,14H32V15H31zM38,14H39V15H38zM40,14H41V15H40zM41,14H42V15H41zM42,14H43V15H42zM43,14H44V15H43zM45,14H46V15H45zM49,14H50V15H49zM50,14H51V15H50zM52,14H53V15H52zM54,14H55V15H54zM55,14H56V15H55zM56,14H57V15H56zM57,14H58V15H57zM59,14H60V15H59zM5,15H6V16H5zM8,15H9V16H8zM11,15H12V16H11zM12,15H13V16H12zM14,15H15V16H14zM17,15H18V16H17zM18,15H19V16H18zM20,15H21V16H20zM21,15H22V16H21zM22,15H23V16H22zM23,15H24V16H23zM25,15H26V16H25zM28,15H29V16H28zM29,15H30V16H29zM32,15H33V16H32zM33,15H34V16H33zM34,15H35V16H34zM35,15H36V16H35zM36,15H37V16H36zM37,15H38V16H37zM40,15H41V16H40zM43,15H44V16H43zM44,15H45V16H44zM48,15H49V16H48zM51,15H52V16H51zM52,15H53V16H52zM56,15H57V16H56zM57,15H58V16H57zM58,15H59V16H58zM59,15H60V16H59zM60,15H61V16H60zM7,16H8V17H7zM9,16H10V17H9zM10,16H11V17H10zM11,16H12V17H11zM12,16H13V17H12zM14,16H15V17H14zM15,16H16V17H15zM16,16H17V17H16zM18,16H19V17H18zM19,16H20V17H19zM22,16H23V17H22zM23,16H24V17H23zM24,16H25V17H24zM25,16H26V17H25zM26,16H27V17H26zM28,16H29V17H28zM30,16H31V17H30zM31,16H32V17H31zM33,16H34V17H33zM39,16H40V17H39zM40,16H41V17H40zM41,16H42V17H41zM46,16H47V17H46zM47,16H48V17H47zM51,16H52V17H51zM55,16H56V17H55zM5,17H6V18H5zM7,17H8V18H7zM15,17H16V18H15zM16,17H17V18H16zM20,17H21V18H20zM23,17H24V18H23zM24,17H25V18H24zM25,17H26V18H25zM26,17H27V18H26zM27,17H28V18H27zM29,17H30V18H29zM31,17H32V18H31zM32,17H33V18H32zM34,17H35V18H34zM36,17H37V18H36zM37,17H38V18H37zM39,17H40V18H39zM43,17H44V18H43zM45,17H46V18H45zM46,17H47V18H46zM49,17H50V18H49zM52,17H53V18H52zM53,17H54V18H53zM55,17H56V18H55zM56,17H57V18H56zM58,17H59V18H58zM59,17H60V18H59zM60,17H61V18H60zM4,18H5V19H4zM6,18H7V19H6zM7,18H8V19H7zM8,18H9V19H8zM10,18H11V19H10zM12,18H13V19H12zM14,18H15V19H14zM16,18H17V19H16zM17,18H18V19H17zM18,18H19V19H18zM20,18H21V19H20zM22,18H23V19H22zM23,18H24V19H23zM24,18H25V19H24zM25,18H26V19H25zM29,18H30V19H29zM30,18H31V19H30zM31,18H32V19H31zM32,18H33V19H32zM33,18H34V19H33zM35,18H36V19H35zM38,18H39V19H38zM39,18H40V19H39zM41,18H42V19H41zM42,18H43V19H42zM45,18H46V19H45zM47,18H48V19H47zM50,18H51V19H50zM52,18H53V19H52zM53,18H54V19H53zM54,18H55V19H54zM55,18H56V19H55zM57,18H58V19H57zM59,18H60V19H59zM6,19H7V20H6zM7,19H8V20H7zM8,19H9V20H8zM9,19H10V20H9zM13,19H14V20H13zM14,19H15V20H14zM19,19H20V20H19zM23,19H24V20H23zM26,19H27V20H26zM27,19H28V20H27zM29,19H30V20H29zM31,19H32V20H31zM32,19H33V20H32zM34,19H35V20H34zM36,19H37V20H36zM39,19H40V20H39zM41,19H42V20H41zM44,19H45V20H44zM47,19H48V20H47zM48,19H49V20H48zM49,19H50V20H49zM52,19H53V20H52zM53,19H54V20H53zM54,19H55V20H54zM55,19H56V20H55zM56,19H57V20H56zM57,19H58V20H57zM58,19H59V20H58zM60,19H61V20H60zM4,20H5V21H4zM5,20H6V21H5zM6,20H7V21H6zM9,20H10V21H9zM10,20H11V21H10zM11,20H12V21H11zM12,20H13V21H12zM13,20H14V21H13zM16,20H17V21H16zM17,20H18V21H17zM18,20H19V21H18zM19,20H20V21H19zM21,20H22V21H21zM22,20H23V21H22zM24,20H25V21H24zM25,20H26V21H25zM26,20H27V21H26zM27,20H28V21H27zM30,20H31V21H30zM35,20H36V21H35zM37,20H38V21H37zM40,20H41V21H40zM42,20H43V21H42zM43,20H44V21H43zM46,20H47V21H46zM49,20H50V21H49zM50,20H51V21H50zM51,20H52V21H51zM53,20H54V21H53zM54,20H55V21H54zM4,21H5V22H4zM6,21H7V22H6zM7,21H8V22H7zM8,21H9V22H8zM11,21H12V22H11zM14,21H15V22H14zM19,21H20V22H19zM20,21H21V22H20zM22,21H23V22H22zM25,21H26V22H25zM27,21H28V22H27zM28,21H29V22H28zM31,21H32V22H31zM32,21H33V22H32zM34,21H35V22H34zM36,21H37V22H36zM37,21H38V22H37zM40,21H41V22H40zM46,21H47V22H46zM47,21H48V22H47zM49,21H50V22H49zM52,21H53V22H52zM53,21H54V22H53zM55,21H56V22H55zM59,21H60V22H59zM60,21H61V22H60zM7,22H8V23H7zM8,22H9V23H8zM10,22H11V23H10zM11,22H12V23H11zM13,22H14V23H13zM15,22H16V23H15zM16,22H17V23H16zM22,22H23V23H22zM24,22H25V23H24zM25,22H26V23H25zM27,22H28V23H27zM28,22H29V23H28zM31,22H32V23H31zM38,22H39V23H38zM39,22H40V23H39zM40,22H41V23H40zM41,22H42V23H41zM42,22H43V23H42zM43,22H44V23H43zM45,22H46V23H45zM47,22H48V23H47zM50,22H51V23H50zM52,22H53V23H52zM54,22H55V23H54zM55,22H56V23H55zM5,23H6V24H5zM6,23H7V24H6zM7,23H8V24H7zM8,23H9V24H8zM9,23H10V24H9zM11,23H12V24H11zM12,23H13V24H12zM13,23H14V24H13zM15,23H16V24H15zM19,23H20V24H19zM20,23H21V24H20zM23,23H24V24H23zM24,23H25V24H24zM27,23H28V24H27zM28,23H29V24H28zM32,23H33V24H32zM33,23H34V24H33zM36,23H37V24H36zM44,23H45V24H44zM45,23H46V24H45zM46,23H47V24H46zM47,23H48V24H47zM48,23H49V24H48zM49,23H50V24H49zM51,23H52V24H51zM52,23H53V24H52zM55,23H56V24H55zM56,23H57V24H56zM58,23H59V24H58zM60,23H61V24H60zM5,24H6V25H5zM10,24H11V25H10zM11,24H12V25H11zM19,24H20V25H19zM20,24H21V25H20zM21,24H22V25H21zM22,24H23V25H22zM23,24H24V25H23zM24,24H25V25H24zM25,24H26V25H25zM29,24H30V25H29zM30,24H31V25H30zM31,24H32V25H31zM33,24H34V25H33zM34,24H35V25H34zM35,24H36V25H35zM37,24H38V25H37zM39,24H40V25H39zM40,24H41V25H40zM41,24H42V25H41zM42,24H43V25H42zM46,24H47V25H46zM51,24H52V25H51zM53,24H54V25H53zM54,24H55V25H54zM13,25H14V26H13zM14,25H15V26H14zM15,25H16V26H15zM16,25H17V26H16zM18,25H19V26H18zM20,25H21V26H20zM21,25H22V26H21zM23,25H24V26H23zM25,25H26V26H25zM26,25H27V26H26zM27,25H28V26H27zM28,25H29V26H28zM31,25H32V26H31zM32,25H33V26H32zM33,25H34V26H33zM34,25H35V26H34zM35,25H36V26H35zM37,25H38V26H37zM40,25H41V26H40zM41,25H42V26H41zM43,25H44V26H43zM45,25H46V26H45zM46,25H47V26H46zM48,25H49V26H48zM52,25H53V26H52zM55,25H56V26H55zM56,25H57V26H56zM60,25H61V26H60zM5,26H6V27H5zM8,26H9V27H8zM9,26H10V27H9zM10,26H11V27H10zM14,26H15V27H14zM15,26H16V27H15zM17,26H18V27H17zM18,26H19V27H18zM20,26H21V27H20zM30,26H31V27H30zM34,26H35V27H34zM36,26H37V27H36zM38,26H39V27H38zM40,26H41V27H40zM41,26H42V27H41zM42,26H43V27H42zM43,26H44V27H43zM49,26H50V27H49zM50,26H51V27H50zM53,26H54V27H53zM54,26H55V27H54zM55,26H56V27H55zM57,26H58V27H57zM59,26H60V27H59zM4,27H5V28H4zM6,27H7V28H6zM8,27H9V28H8zM11,27H12V28H11zM13,27H14V28H13zM14,27H15V28H14zM20,27H21V28H20zM21,27H22V28H21zM22,27H23V28H22zM25,27H26V28H25zM27,27H28V28H27zM28,27H29V28H28zM29,27H30V28H29zM31,27H32V28H31zM32,27H33V28H32zM33,27H34V28H33zM34,27H35V28H34zM37,27H38V28H37zM39,27H40V28H39zM43,27H44V28H43zM44,27H45V28H44zM46,27H47V28H46zM47,27H48V28H47zM48,27H49V28H48zM52,27H53V28H52zM54,27H55V28H54zM58,27H59V28H58zM6,28H7V29H6zM8,28H9V29H8zM10,28H11V29H10zM11,28H12V29H11zM13,28H14V29H13zM14,28H15V29H14zM15,28H16V29H15zM17,28H18V29H17zM18,28H19V29H18zM19,28H20V29H19zM20,28H21V29H20zM21,28H22V29H21zM22,28H23V29H22zM24,28H25V29H24zM26,28H27V29H26zM29,28H30V29H29zM30,28H31V29H30zM31,28H32V29H31zM35,28H36V29H35zM40,28H41V29H40zM41,28H42V29H41zM42,28H43V29H42zM45,28H46V29H45zM46,28H47V29H46zM49,28H50V29H49zM52,28H53V29H52zM54,28H55V29H54zM60,28H61V29H60zM4,29H5V30H4zM9,29H10V30H9zM13,29H14V30H13zM14,29H15V30H14zM15,29H16V30H15zM16,29H17V30H16zM18,29H19V30H18zM21,29H22V30H21zM22,29H23V30H22zM25,29H26V30H25zM26,29H27V30H26zM27,29H28V30H27zM28,29H29V30H28zM31,29H32V30H31zM34,29H35V30H34zM35,29H36V30H35zM36,29H37V30H36zM37,29H38V30H37zM39,29H40V30H39zM40,29H41V30H40zM43,29H44V30H43zM44,29H45V30H44zM45,29H46V30H45zM46,29H47V30H46zM51,29H52V30H51zM52,29H53V30H52zM57,29H58V30H57zM58,29H59V30H58zM59,29H60V30H59zM6,30H7V31H6zM8,30H9V31H8zM9,30H10V31H9zM10,30H11V31H10zM11,30H12V31H11zM12,30H13V31H12zM13,30H14V31H13zM14,30H15V31H14zM15,30H16V31H15zM16,30H17V31H16zM17,30H18V31H17zM18,30H19V31H18zM19,30H20V31H19zM22,30H23V31H22zM23,30H24V31H23zM24,30H25V31H24zM29,30H30V31H29zM30,30H31V31H30zM31,30H32V31H31zM32,30H33V31H32zM33,30H34V31H33zM34,30H35V31H34zM35,30H36V31H35zM38,30H39V31H38zM40,30H41V31H40zM41,30H42V31H41zM42,30H43V31H42zM43,30H44V31H43zM48,30H49V31H48zM49,30H50V31H49zM50,30H51V31H50zM51,30H52V31H51zM52,30H53V31H52zM53,30H54V31H53zM54,30H55V31H54zM55,30H56V31H55zM56,30H57V31H56zM57,30H58V31H57zM58,30H59V31H58zM59,30H60V31H59zM4,31H5V32H4zM7,31H8V32H7zM8,31H9V32H8zM12,31H13V32H12zM13,31H14V32H13zM14,31H15V32H14zM16,31H17V32H16zM17,31H18V32H17zM18,31H19V32H18zM19,31H20V32H19zM21,31H22V32H21zM22,31H23V32H22zM23,31H24V32H23zM25,31H26V32H25zM28,31H29V32H28zM29,31H30V32H29zM30,31H31V32H30zM34,31H35V32H34zM35,31H36V32H35zM36,31H37V32H36zM39,31H40V32H39zM44,31H45V32H44zM48,31H49V32H48zM49,31H50V32H49zM51,31H52V32H51zM52,31H53V32H52zM56,31H57V32H56zM58,31H59V32H58zM59,31H60V32H59zM60,31H61V32H60zM6,32H7V33H6zM8,32H9V33H8zM10,32H11V33H10zM12,32H13V33H12zM15,32H16V33H15zM17,32H18V33H17zM18,32H19V33H18zM19,32H20V33H19zM21,32H22V33H21zM23,32H24V33H23zM24,32H25V33H24zM26,32H27V33H26zM27,32H28V33H27zM30,32H31V33H30zM32,32H33V33H32zM34,32H35V33H34zM40,32H41V33H40zM42,32H43V33H42zM43,32H44V33H43zM46,32H47V33H46zM47,32H48V33H47zM49,32H50V33H49zM52,32H53V33H52zM54,32H55V33H54zM56,32H57V33H56zM57,32H58V33H57zM4,33H5V34H4zM5,33H6V34H5zM6,33H7V34H6zM7,33H8V34H7zM8,33H9V34H8zM12,33H13V34H12zM13,33H14V34H13zM15,33H16V34H15zM16,33H17V34H16zM19,33H20V34H19zM22,33H23V34H22zM24,33H25V34H24zM25,33H26V34H25zM26,33H27V34H26zM28,33H29V34H28zM30,33H31V34H30zM34,33H35V34H34zM36,33H37V34H36zM37,33H38V34H37zM41,33H42V34H41zM46,33H47V34H46zM49,33H50V34H49zM52,33H53V34H52zM56,33H57V34H56zM59,33H60V34H59zM60,33H61V34H60zM4,34H5V35H4zM7,34H8V35H7zM8,34H9V35H8zM9,34H10V35H9zM10,34H11V35H10zM11,34H12V35H11zM12,34H13V35H12zM13,34H14V35H13zM15,34H16V35H15zM16,34H17V35H16zM18,34H19V35H18zM21,34H22V35H21zM24,34H25V35H24zM25,34H26V35H25zM28,34H29V35H28zM29,34H30V35H29zM30,34H31V35H30zM31,34H32V35H31zM32,34H33V35H32zM33,34H34V35H33zM34,34H35V35H34zM35,34H36V35H35zM38,34H39V35H38zM40,34H41V35H40zM42,34H43V35H42zM43,34H44V35H43zM44,34H45V35H44zM45,34H46V35H45zM48,34H49V35H48zM49,34H50V35H49zM50,34H51V35H50zM52,34H53V35H52zM53,34H54V35H53zM54,34H55V35H54zM55,34H56V35H55zM56,34H57V35H56zM57,34H58V35H57zM4,35H5V36H4zM5,35H6V36H5zM7,35H8V36H7zM8,35H9V36H8zM9,35H10V36H9zM11,35H12V36H11zM12,35H13V36H12zM17,35H18V36H17zM18,35H19V36H18zM22,35H23V36H22zM23,35H24V36H23zM24,35H25V36H24zM26,35H27V36H26zM30,35H31V36H30zM32,35H33V36H32zM33,35H34V36H33zM35,35H36V36H35zM36,35H37V36H36zM44,35H45V36H44zM47,35H48V36H47zM48,35H49V36H48zM49,35H50V36H49zM51,35H52V36H51zM54,35H55V36H54zM55,35H56V36H55zM57,35H58V36H57zM58,35H59V36H58zM60,35H61V36H60zM5,36H6V37H5zM6,36H7V37H6zM8,36H9V37H8zM10,36H11V37H10zM11,36H12V37H11zM12,36H13V37H12zM14,36H15V37H14zM15,36H16V37H15zM16,36H17V37H16zM20,36H21V37H20zM23,36H24V37H23zM26,36H27V37H26zM28,36H29V37H28zM30,36H31V37H30zM32,36H33V37H32zM33,36H34V37H33zM34,36H35V37H34zM37,36H38V37H37zM38,36H39V37H38zM39,36H40V37H39zM40,36H41V37H40zM41,36H42V37H41zM43,36H44V37H43zM45,36H46V37H45zM46,36H47V37H46zM50,36H51V37H50zM53,36H54V37H53zM56,36H57V37H56zM59,36H60V37H59zM4,37H5V38H4zM7,37H8V38H7zM12,37H13V38H12zM14,37H15V38H14zM16,37H17V38H16zM17,37H18V38H17zM18,37H19V38H18zM20,37H21V38H20zM21,37H22V38H21zM22,37H23V38H22zM25,37H26V38H25zM26,37H27V38H26zM28,37H29V38H28zM31,37H32V38H31zM34,37H35V38H34zM37,37H38V38H37zM43,37H44V38H43zM44,37H45V38H44zM45,37H46V38H45zM46,37H47V38H46zM47,37H48V38H47zM49,37H50V38H49zM52,37H53V38H52zM54,37H55V38H54zM55,37H56V38H55zM58,37H59V38H58zM59,37H60V38H59zM7,38H8V39H7zM9,38H10V39H9zM10,38H11V39H10zM11,38H12V39H11zM12,38H13V39H12zM13,38H14V39H13zM16,38H17V39H16zM17,38H18V39H17zM19,38H20V39H19zM20,38H21V39H20zM22,38H23V39H22zM23,38H24V39H23zM24,38H25V39H24zM25,38H26V39H25zM26,38H27V39H26zM27,38H28V39H27zM28,38H29V39H28zM29,38H30V39H29zM30,38H31V39H30zM31,38H32V39H31zM34,38H35V39H34zM35,38H36V39H35zM38,38H39V39H38zM40,38H41V39H40zM41,38H42V39H41zM42,38H43V39H42zM46,38H47V39H46zM47,38H48V39H47zM50,38H51V39H50zM53,38H54V39H53zM55,38H56V39H55zM56,38H57V39H56zM57,38H58V39H57zM58,38H59V39H58zM59,38H60V39H59zM60,38H61V39H60zM4,39H5V40H4zM6,39H7V40H6zM7,39H8V40H7zM8,39H9V40H8zM11,39H12V40H11zM12,39H13V40H12zM13,39H14V40H13zM15,39H16V40H15zM16,39H17V40H16zM19,39H20V40H19zM20,39H21V40H20zM22,39H23V40H22zM24,39H25V40H24zM26,39H27V40H26zM27,39H28V40H27zM31,39H32V40H31zM32,39H33V40H32zM35,39H36V40H35zM36,39H37V40H36zM37,39H38V40H37zM38,39H39V40H38zM41,39H42V40H41zM44,39H45V40H44zM46,39H47V40H46zM48,39H49V40H48zM51,39H52V40H51zM52,39H53V40H52zM54,39H55V40H54zM57,39H58V40H57zM58,39H59V40H58zM8,40H9V41H8zM9,40H10V41H9zM10,40H11V41H10zM11,40H12V41H11zM13,40H14V41H13zM14,40H15V41H14zM17,40H18V41H17zM19,40H20V41H19zM24,40H25V41H24zM25,40H26V41H25zM26,40H27V41H26zM29,40H30V41H29zM30,40H31V41H30zM32,40H33V41H32zM34,40H35V41H34zM37,40H38V41H37zM39,40H40V41H39zM40,40H41V41H40zM42,40H43V41H42zM43,40H44V41H43zM45,40H46V41H45zM47,40H48V41H47zM52,40H53V41H52zM53,40H54V41H53zM55,40H56V41H55zM56,40H57V41H56zM7,41H8V42H7zM11,41H12V42H11zM12,41H13V42H12zM13,41H14V42H13zM14,41H15V42H14zM17,41H18V42H17zM19,41H20V42H19zM20,41H21V42H20zM23,41H24V42H23zM24,41H25V42H24zM27,41H28V42H27zM28,41H29V42H28zM30,41H31V42H30zM37,41H38V42H37zM40,41H41V42H40zM45,41H46V42H45zM46,41H47V42H46zM47,41H48V42H47zM49,41H50V42H49zM51,41H52V42H51zM52,41H53V42H52zM53,41H54V42H53zM55,41H56V42H55zM58,41H59V42H58zM60,41H61V42H60zM4,42H5V43H4zM5,42H6V43H5zM8,42H9V43H8zM10,42H11V43H10zM11,42H12V43H11zM15,42H16V43H15zM16,42H17V43H16zM17,42H18V43H17zM22,42H23V43H22zM26,42H27V43H26zM29,42H30V43H29zM34,42H35V43H34zM36,42H37V43H36zM38,42H39V43H38zM40,42H41V43H40zM41,42H42V43H41zM42,42H43V43H42zM47,42H48V43H47zM50,42H51V43H50zM53,42H54V43H53zM58,42H59V43H58zM7,43H8V44H7zM8,43H9V44H8zM9,43H10V44H9zM12,43H13V44H12zM13,43H14V44H13zM14,43H15V44H14zM15,43H16V44H15zM19,43H20V44H19zM21,43H22V44H21zM22,43H23V44H22zM23,43H24V44H23zM24,43H25V44H24zM25,43H26V44H25zM28,43H29V44H28zM32,43H33V44H32zM33,43H34V44H33zM35,43H36V44H35zM36,43H37V44H36zM37,43H38V44H37zM38,43H39V44H38zM39,43H40V44H39zM42,43H43V44H42zM45,43H46V44H45zM46,43H47V44H46zM47,43H48V44H47zM48,43H49V44H48zM51,43H52V44H51zM52,43H53V44H52zM54,43H55V44H54zM55,43H56V44H55zM56,43H57V44H56zM58,43H59V44H58zM59,43H60V44H59zM60,43H61V44H60zM5,44H6V45H5zM8,44H9V45H8zM9,44H10V45H9zM10,44H11V45H10zM13,44H14V45H13zM14,44H15V45H14zM16,44H17V45H16zM17,44H18V45H17zM18,44H19V45H18zM19,44H20V45H19zM25,44H26V45H25zM27,44H28V45H27zM31,44H32V45H31zM32,44H33V45H32zM33,44H34V45H33zM37,44H38V45H37zM40,44H41V45H40zM45,44H46V45H45zM46,44H47V45H46zM49,44H50V45H49zM53,44H54V45H53zM54,44H55V45H54zM56,44H57V45H56zM4,45H5V46H4zM8,45H9V46H8zM9,45H10V46H9zM12,45H13V46H12zM14,45H15V46H14zM17,45H18V46H17zM20,45H21V46H20zM21,45H22V46H21zM22,45H23V46H22zM28,45H29V46H28zM30,45H31V46H30zM31,45H32V46H31zM34,45H35V46H34zM35,45H36V46H35zM36,45H37V46H36zM39,45H40V46H39zM40,45H41V46H40zM41,45H42V46H41zM46,45H47V46H46zM48,45H49V46H48zM49,45H50V46H49zM52,45H53V46H52zM53,45H54V46H53zM54,45H55V46H54zM55,45H56V46H55zM58,45H59V46H58zM59,45H60V46H59zM60,45H61V46H60zM4,46H5V47H4zM10,46H11V47H10zM11,46H12V47H11zM12,46H13V47H12zM13,46H14V47H13zM14,46H15V47H14zM16,46H17V47H16zM17,46H18V47H17zM19,46H20V47H19zM21,46H22V47H21zM25,46H26V47H25zM28,46H29V47H28zM29,46H30V47H29zM30,46H31V47H30zM31,46H32V47H31zM34,46H35V47H34zM37,46H38V47H37zM38,46H39V47H38zM39,46H40V47H39zM40,46H41V47H40zM42,46H43V47H42zM45,46H46V47H45zM50,46H51V47H50zM52,46H53V47H52zM53,46H54V47H53zM55,46H56V47H55zM4,47H5V48H4zM8,47H9V48H8zM11,47H12V48H11zM12,47H13V48H12zM13,47H14V48H13zM15,47H16V48H15zM16,47H17V48H16zM17,47H18V48H17zM18,47H19V48H18zM21,47H22V48H21zM22,47H23V48H22zM24,47H25V48H24zM26,47H27V48H26zM27,47H28V48H27zM28,47H29V48H28zM31,47H32V48H31zM35,47H36V48H35zM36,47H37V48H36zM37,47H38V48H37zM42,47H43V48H42zM44,47H45V48H44zM46,47H47V48H46zM47,47H48V48H47zM48,47H49V48H48zM49,47H50V48H49zM50,47H51V48H50zM51,47H52V48H51zM52,47H53V48H52zM54,47H55V48H54zM57,47H58V48H57zM58,47H59V48H58zM59,47H60V48H59zM4,48H5V49H4zM6,48H7V49H6zM7,48H8V49H7zM9,48H10V49H9zM10,48H11V49H10zM11,48H12V49H11zM13,48H14V49H13zM14,48H15V49H14zM15,48H16V49H15zM16,48H17V49H16zM17,48H18V49H17zM18,48H19V49H18zM19,48H20V49H19zM22,48H23V49H22zM23,48H24V49H23zM25,48H26V49H25zM26,48H27V49H26zM32,48H33V49H32zM34,48H35V49H34zM38,48H39V49H38zM39,48H40V49H39zM40,48H41V49H40zM43,48H44V49H43zM45,48H46V49H45zM49,48H50V49H49zM50,48H51V49H50zM52,48H53V49H52zM53,48H54V49H53zM56,48H57V49H56zM57,48H58V49H57zM4,49H5V50H4zM6,49H7V50H6zM8,49H9V50H8zM11,49H12V50H11zM15,49H16V50H15zM22,49H23V50H22zM23,49H24V50H23zM24,49H25V50H24zM27,49H28V50H27zM28,49H29V50H28zM31,49H32V50H31zM35,49H36V50H35zM36,49H37V50H36zM37,49H38V50H37zM43,49H44V50H43zM44,49H45V50H44zM46,49H47V50H46zM47,49H48V50H47zM48,49H49V50H48zM51,49H52V50H51zM60,49H61V50H60zM4,50H5V51H4zM6,50H7V51H6zM9,50H10V51H9zM10,50H11V51H10zM11,50H12V51H11zM12,50H13V51H12zM13,50H14V51H13zM15,50H16V51H15zM17,50H18V51H17zM19,50H20V51H19zM20,50H21V51H20zM21,50H22V51H21zM25,50H26V51H25zM26,50H27V51H26zM27,50H28V51H27zM28,50H29V51H28zM29,50H30V51H29zM30,50H31V51H30zM32,50H33V51H32zM33,50H34V51H33zM34,50H35V51H34zM38,50H39V51H38zM39,50H40V51H39zM40,50H41V51H40zM41,50H42V51H41zM42,50H43V51H42zM43,50H44V51H43zM45,50H46V51H45zM49,50H50V51H49zM50,50H51V51H50zM53,50H54V51H53zM55,50H56V51H55zM57,50H58V51H57zM58,50H59V51H58zM59,50H60V51H59zM4,51H5V52H4zM5,51H6V52H5zM6,51H7V52H6zM7,51H8V52H7zM8,51H9V52H8zM16,51H17V52H16zM19,51H20V52H19zM20,51H21V52H20zM22,51H23V52H22zM23,51H24V52H23zM27,51H28V52H27zM28,51H29V52H28zM29,51H30V52H29zM30,51H31V52H30zM36,51H37V52H36zM37,51H38V52H37zM41,51H42V52H41zM44,51H45V52H44zM46,51H47V52H46zM47,51H48V52H47zM49,51H50V52H49zM51,51H52V52H51zM52,51H53V52H52zM54,51H55V52H54zM55,51H56V52H55zM58,51H59V52H58zM59,51H60V52H59zM10,52H11V53H10zM11,52H12V53H11zM12,52H13V53H12zM13,52H14V53H13zM14,52H15V53H14zM15,52H16V53H15zM18,52H19V53H18zM19,52H20V53H19zM20,52H21V53H20zM22,52H23V53H22zM24,52H25V53H24zM25,52H26V53H25zM26,52H27V53H26zM27,52H28V53H27zM30,52H31V53H30zM31,52H32V53H31zM32,52H33V53H32zM33,52H34V53H33zM34,52H35V53H34zM35,52H36V53H35zM37,52H38V53H37zM38,52H39V53H38zM39,52H40V53H39zM40,52H41V53H40zM42,52H43V53H42zM43,52H44V53H43zM47,52H48V53H47zM49,52H50V53H49zM50,52H51V53H50zM52,52H53V53H52zM53,52H54V53H53zM54,52H55V53H54zM55,52H56V53H55zM56,52H57V53H56zM57,52H58V53H57zM60,52H61V53H60zM12,53H13V54H12zM13,53H14V54H13zM15,53H16V54H15zM17,53H18V54H17zM18,53H19V54H18zM22,53H23V54H22zM23,53H24V54H23zM28,53H29V54H28zM30,53H31V54H30zM34,53H35V54H34zM35,53H36V54H35zM36,53H37V54H36zM44,53H45V54H44zM46,53H47V54H46zM47,53H48V54H47zM48,53H49V54H48zM51,53H52V54H51zM52,53H53V54H52zM56,53H57V54H56zM57,53H58V54H57zM58,53H59V54H58zM59,53H60V54H59zM60,53H61V54H60zM4,54H5V55H4zM5,54H6V55H5zM6,54H7V55H6zM7,54H8V55H7zM8,54H9V55H8zM9,54H10V55H9zM10,54H11V55H10zM14,54H15V55H14zM16,54H17V55H16zM17,54H18V55H17zM18,54H19V55H18zM20,54H21V55H20zM22,54H23V55H22zM26,54H27V55H26zM27,54H28V55H27zM28,54H29V55H28zM29,54H30V55H29zM30,54H31V55H30zM32,54H33V55H32zM34,54H35V55H34zM39,54H40V55H39zM40,54H41V55H40zM41,54H42V55H41zM42,54H43V55H42zM43,54H44V55H43zM45,54H46V55H45zM47,54H48V55H47zM48,54H49V55H48zM49,54H50V55H49zM50,54H51V55H50zM51,54H52V55H51zM52,54H53V55H52zM54,54H55V55H54zM56,54H57V55H56zM57,54H58V55H57zM58,54H59V55H58zM4,55H5V56H4zM10,55H11V56H10zM12,55H13V56H12zM13,55H14V56H13zM14,55H15V56H14zM17,55H18V56H17zM19,55H20V56H19zM20,55H21V56H20zM22,55H23V56H22zM25,55H26V56H25zM27,55H28V56H27zM28,55H29V56H28zM30,55H31V56H30zM34,55H35V56H34zM36,55H37V56H36zM37,55H38V56H37zM39,55H40V56H39zM40,55H41V56H40zM42,55H43V56H42zM43,55H44V56H43zM44,55H45V56H44zM48,55H49V56H48zM49,55H50V56H49zM50,55H51V56H50zM52,55H53V56H52zM56,55H57V56H56zM57,55H58V56H57zM58,55H59V56H58zM60,55H61V56H60zM4,56H5V57H4zM6,56H7V57H6zM7,56H8V57H7zM8,56H9V57H8zM10,56H11V57H10zM12,56H13V57H12zM13,56H14V57H13zM16,56H17V57H16zM17,56H18V57H17zM19,56H20V57H19zM20,56H21V57H20zM21,56H22V57H21zM23,56H24V57H23zM24,56H25V57H24zM25,56H26V57H25zM27,56H28V57H27zM30,56H31V57H30zM31,56H32V57H31zM32,56H33V57H32zM33,56H34V57H33zM34,56H35V57H34zM35,56H36V57H35zM37,56H38V57H37zM38,56H39V57H38zM39,56H40V57H39zM40,56H41V57H40zM47,56H48V57H47zM49,56H50V57H49zM52,56H53V57H52zM53,56H54V57H53zM54,56H55V57H54zM55,56H56V57H55zM56,56H57V57H56zM57,56H58V57H57zM4,57H5V58H4zM6,57H7V58H6zM7,57H8V58H7zM8,57H9V58H8zM10,57H11V58H10zM12,57H13V58H12zM20,57H21V58H20zM22,57H23V58H22zM23,57H24V58H23zM24,57H25V58H24zM25,57H26V58H25zM26,57H27V58H26zM27,57H28V58H27zM28,57H29V58H28zM29,57H30V58H29zM30,57H31V58H30zM31,57H32V58H31zM32,57H33V58H32zM34,57H35V58H34zM35,57H36V58H35zM36,57H37V58H36zM37,57H38V58H37zM40,57H41V58H40zM41,57H42V58H41zM45,57H46V58H45zM46,57H47V58H46zM48,57H49V58H48zM49,57H50V58H49zM56,57H57V58H56zM57,57H58V58H57zM58,57H59V58H58zM4,58H5V59H4zM6,58H7V59H6zM7,58H8V59H7zM8,58H9V59H8zM10,58H11V59H10zM12,58H13V59H12zM13,58H14V59H13zM15,58H16V59H15zM16,58H17V59H16zM23,58H24V59H23zM24,58H25V59H24zM25,58H26V59H25zM29,58H30V59H29zM31,58H32V59H31zM38,58H39V59H38zM39,58H40V59H39zM40,58H41V59H40zM42,58H43V59H42zM43,58H44V59H43zM45,58H46V59H45zM46,58H47V59H46zM47,58H48V59H47zM50,58H51V59H50zM51,58H52V59H51zM52,58H53V59H52zM55,58H56V59H55zM4,59H5V60H4zM10,59H11V60H10zM16,59H17V60H16zM18,59H19V60H18zM20,59H21V60H20zM21,59H22V60H21zM23,59H24V60H23zM25,59H26V60H25zM28,59H29V60H28zM31,59H32V60H31zM32,59H33V60H32zM34,59H35V60H34zM35,59H36V60H35zM36,59H37V60H36zM37,59H38V60H37zM38,59H39V60H38zM39,59H40V60H39zM41,59H42V60H41zM43,59H44V60H43zM44,59H45V60H44zM45,59H46V60H45zM46,59H47V60H46zM48,59H49V60H48zM51,59H52V60H51zM52,59H53V60H52zM55,59H56V60H55zM56,59H57V60H56zM58,59H59V60H58zM4,60H5V61H4zM5,60H6V61H5zM6,60H7V61H6zM7,60H8V61H7zM8,60H9V61H8zM9,60H10V61H9zM10,60H11V61H10zM12,60H13V61H12zM13,60H14V61H13zM15,60H16V61H15zM17,60H18V61H17zM19,60H20V61H19zM20,60H21V61H20zM21,60H22V61H21zM22,60H23V61H22zM23,60H24V61H23zM24,60H25V61H24zM27,60H28V61H27zM29,60H30V61H29zM31,60H32V61H31zM33,60H34V61H33zM37,60H38V61H37zM40,60H41V61H40zM42,60H43V61H42zM45,60H46V61H45zM46,60H47V61H46zM47,60H48V61H47zM49,60H50V61H49zM50,60H51V61H50zM52,60H53V61H52zM54,60H55V61H54zM55,60H56V61H55zM57,60H58V61H57zM59,60H60V61H59z" id="qr-path" fill="#000000" fill-opacity="1" fill-rule="nonzero" stroke="none" /></svg>