<?xml version='1.0' encoding='UTF-8'?>
<svg width="65mm" height="65mm" version="1.1" viewBox="0 0 65 65" xmlns="http://www.w3.org/2000/svg"><path d="M4,4H5V5H4zM5,4H6V5H5zM6,4H7V5H6zM7,4H8V5H7zM8,4H9V5H8zM9,4H10V5H9zM10,4H11V5H10zM13,4H14V5H13zM15,4H16V5H15zM17,4H18V5H17zM19,4H20V5H19zM21,4H22V5H21zM23,4H24V5H23zM24,4H25V5H24zM26,4H27V5H26zM28,4H29V5H28zM31,4H32V5H31zM34,4H35V5H34zM35,4H36V5H35zM37,4H38V5H37zM39,4H40V5H39zM40,4H41V5H40zM44,4H45V5H44zM45,4H46V5H45zM46,4H47V5H46zM50,4H51V5H50zM51,4H52V5H51zM54,4H55V5H54zM55,4H56V5H55zM56,4H57V5H56zM57,4H58V5H57zM58,4H59V5H58zM59,4H60V5H59zM60,4H61V5H60zM4,5H5V6H4zM10,5H11V6H10zM13,5H14V6H13zM18,5H19V6H18zM19,5H20V6H19zM21,5H22V6H21zM25,5H26V6H25zM30,5H31V6H30zM31,5H32V6H31zM33,5H34V6H33zM36,5H37V6H36zM38,5H39V6H38zM39,5H40V6H39zM40,5H41V6H40zM41,5H42V6H41zM42,5H43V6H42zM43,5H44V6H43zM48,5H49V6H48zM51,5H52V6H51zM54,5H55V6H54zM60,5H61V6H60zM4,6H5V7H4zM6,6H7V7H6zM7,6H8V7H7zM8,6H9V7H8zM10,6H11V7H10zM12,6H13V7H12zM17,6H18V7H17zM18,6H19V7H18zM26,6H27V7H26zM27,6H28V7H27zM28,6H29V7H28zM29,6H30V7H29zM32,6H33V7H32zM34,6H35V7H34zM35,6H36V7H35zM36,6H37V7H36zM37,6H38V7H37zM38,6H39V7H38zM39,6H40V7H39zM41,6H42V7H41zM43,6H44V7H43zM44,6H45V7H44zM46,6H47V7H46zM47,6H48V7H47zM48,6H49V7H48zM49,6H50V7H49zM50,6H51V7H50zM51,6H52V7H51zM54,6H55V7H54zM56,6H57V7H56zM57,6H58V7H57zM58,6H59V7H58zM60,6H61V7H60zM4,7H5V8H4zM6,7H7V8H6zM7,7H8V8H7zM8,7H9V8H8zM10,7H11V8H10zM12,7H13V8H12zM13,7H14V8H13zM15,7H16V8H15zM16,7H17V8H16zM19,7H20V8H19zM20,7H21V8H20zM22,7H23V8H22zM23,7H24V8H23zM24,7H25V8H24zM31,7H32V8H31zM35,7H36V8H35zM37,7H38V8H37zM40,7H41V8H40zM51,7H52V8H51zM54,7H55V8H54zM56,7H57V8H56zM57,7H58V8H57zM58,7H59V8H58zM60,7H61V8H60zM4,8H5V9H4zM6,8H7V9H6zM7,8H8V9H7zM8,8H9V9H8zM10,8H11V9H10zM12,8H13V9H12zM15,8H16V9H15zM16,8H17V9H16zM17,8H18V9H17zM19,8H20V9H19zM21,8H22V9H21zM23,8H24V9H23zM24,8H25V9H24zM26,8H27V9H26zM27,8H28V9H27zM28,8H29V9H28zM30,8H31V9H30zM31,8H32V9H31zM32,8H33V9H32zM33,8H34V9H33zM34,8H35V9H34zM36,8H37V9H36zM39,8H40V9H39zM40,8H41V9H40zM41,8H42V9H41zM44,8H45V9H44zM46,8H47V9H46zM48,8H49V9H48zM49,8H50V9H49zM51,8H52V9H51zM54,8H55V9H54zM56,8H57V9H56zM57,8H58V9H57zM58,8H59V9H58zM60,8H61V9H60zM4,9H5V10H4zM10,9H11V10H10zM12,9H13V10H12zM14,9H15V10H14zM15,9H16V10H15zM16,9H17V10H16zM18,9H19V10H18zM20,9H21V10H20zM21,9H22V10H21zM22,9H23V10H22zM23,9H24V10H23zM24,9H25V10H24zM25,9H26V10H25zM28,9H29V10H28zM29,9H30V10H29zM30,9H31V10H30zM34,9H35V10H34zM36,9H37V10H36zM37,9H38V10H37zM38,9H39V10H38zM39,9H40V10H39zM40,9H41V10H40zM42,9H43V10H42zM45,9H46V10H45zM49,9H50V10H49zM50,9H51V10H50zM54,9H55V10H54zM60,9H61V10H60zM4,10H5V11H4zM5,10H6V11H5zM6,10H7V11H6zM7,10H8V11H7zM8,10H9V11H8zM9,10H10V11H9zM10,10H11V11H10zM12,10H13V11H12zM14,10H15V11H14zM16,10H17V11H16zM18,10H19V11H18zM20,10H21V11H20zM22,10H23V11H22zM24,10H25V11H24zM26,10H27V11H26zM28,10H29V11H28zM30,10H31V11H30zM32,10H33V11H32zM34,10H35V11H34zM36,10H37V11H36zM38,10H39V11H38zM40,10H41V11H40zM42,10H43V11H42zM44,10H45V11H44zM46,10H47V11H46zM48,10H49V11H48zM50,10H51V11H50zM52,10H53V11H52zM54,10H55V11H54zM55,10H56V11H55zM56,10H57V11H56zM57,10H58V11H57zM58,10H59V11H58zM59,10H60V11H59zM60,10H61V11H60zM12,11H13V12H12zM13,11H14V12H13zM14,11H15V12H14zM15,11H16V12H15zM17,11H18V12H17zM18,11H19V12H18zM23,11H24V12H23zM24,11H25V12H24zM27,11H28V12H27zM29,11H30V12H29zM30,11H31V12H30zM34,11H35V12H34zM36,11H37V12H36zM37,11H38V12H37zM38,11H39V12H38zM39,11H40V12H39zM44,11H45V12H44zM45,11H46V12H45zM46,11H47V12H46zM47,11H48V12H47zM48,11H49V12H48zM49,11H50V12H49zM50,11H51V12H50zM51,11H52V12H51zM4,12H5V13H4zM6,12H7V13H6zM7,12H8V13H7zM8,12H9V13H8zM9,12H10V13H9zM10,12H11V13H10zM13,12H14V13H13zM18,12H19V13H18zM21,12H22V13H21zM23,12H24V13H23zM25,12H26V13H25zM30,12H31V13H30zM31,12H32V13H31zM32,12H33V13H32zM33,12H34V13H33zM34,12H35V13H34zM37,12H38V13H37zM38,12H39V13H38zM40,12H41V13H40zM42,12H43V13H42zM43,12H44V13H43zM49,12H50V13H49zM50,12H51V13H50zM51,12H52V13H51zM54,12H55V13H54zM55,12H56V13H55zM56,12H57V13H56zM57,12H58V13H57zM58,12H59V13H58zM4,13H5V14H4zM6,13H7V14H6zM9,13H10V14H9zM11,13H12V14H11zM12,13H13V14H12zM13,13H14V14H13zM14,13H15V14H14zM15,13H16V14H15zM18,13H19V14H18zM19,13H20V14H19zM20,13H21V14H20zM23,13H24V14H23zM27,13H28V14H27zM28,13H29V14H28zM32,13H33V14H32zM34,13H35V14H34zM36,13H37V14H36zM39,13H40V14H39zM40,13H41V14H40zM44,13H45V14H44zM46,13H47V14H46zM48,13H49V14H48zM49,13H50V14H49zM52,13H53V14H52zM53,13H54V14H53zM55,13H56V14H55zM57,13H58V14H57zM59,13H60V14H59zM60,13H61V14H60zM6,14H7V15H6zM9,14H10V15H9zM10,14H11V15H10zM11,14H12V15H11zM12,14H13V15H12zM13,14H14V15H13zM14,14H15V15H14zM16,14H17V15H16zM17,14H18V15H17zM21,14H22V15H21zM22,14H23V15H22zM23,14H24V15H23zM25,14H26V15H25zM28,14H29V15H28zM29,14H30V15H29zM31,14H32V15H31zM33,14H34V15H33zM35,14H36V15H35zM37,14H38V15H37zM40,14H41V15H40zM41,14H42V15H41zM42,14H43V15H42zM43,14H44V15H43zM45,14H46V15H45zM47,14H48V15H47zM49,14H50V15H49zM50,14H51V15H50zM54,14H55V15H54zM57,14H58V15H57zM5,15H6V16H5zM6,15H7V16H6zM19,15H20V16H19zM22,15H23V16H22zM25,15H26V16H25zM26,15H27V16H26zM27,15H28V16H27zM28,15H29V16H28zM29,15H30V16H29zM31,15H32V16H31zM35,15H36V16H35zM36,15H37V16H36zM37,15H38V16H37zM39,15H40V16H39zM41,15H42V16H41zM43,15H44V16H43zM44,15H45V16H44zM45,15H46V16H45zM46,15H47V16H46zM48,15H49V16H48zM49,15H50V16H49zM50,15H51V16H50zM52,15H53V16H52zM53,15H54V16H53zM56,15H57V16H56zM57,15H58V16H57zM58,15H59V16H58zM10,16H11V17H10zM11,16H12V17H11zM12,16H13V17H12zM13,16H14V17H13zM14,16H15V17H14zM16,16H17V17H16zM17,16H18V17H17zM19,16H20V17H19zM21,16H22V17H21zM22,16H23V17H22zM24,16H25V17H24zM28,16H29V17H28zM30,16H31V17H30zM33,16H34V17H33zM34,16H35V17H34zM37,16H38V17H37zM39,16H40V17H39zM40,16H41V17H40zM41,16H42V17H41zM42,16H43V17H42zM45,16H46V17H45zM47,16H48V17H47zM51,16H52V17H51zM54,16H55V17H54zM55,16H56V17H55zM59,16H60V17H59zM4,17H5V18H4zM5,17H6V18H5zM7,17H8V18H7zM13,17H14V18H13zM15,17H16V18H15zM17,17H18V18H17zM18,17H19V18H18zM19,17H20V18H19zM21,17H22V18H21zM23,17H24V18H23zM24,17H25V18H24zM26,17H27V18H26zM27,17H28V18H27zM29,17H30V18H29zM30,17H31V18H30zM32,17H33V18H32zM33,17H34V18H33zM34,17H35V18H34zM35,17H36V18H35zM36,17H37V18H36zM37,17H38V18H37zM40,17H41V18H40zM43,17H44V18H43zM44,17H45V18H44zM45,17H46V18H45zM46,17H47V18H46zM47,17H48V18H47zM49,17H50V18H49zM52,17H53V18H52zM53,17H54V18H53zM55,17H56V18H55zM56,17H57V18H56zM57,17H58V18H57zM58,17H59V18H58zM59,17H60V18H59zM60,17H61V18H60zM4,18H5V19H4zM6,18H7V19H6zM9,18H10V19H9zM10,18H11V19H10zM13,18H14V19H13zM17,18H18V19H17zM18,18H19V19H18zM20,18H21V19H20zM21,18H22V19H21zM22,18H23V19H22zM23,18H24V19H23zM24,18H25V19H24zM26,18H27V19H26zM29,18H30V19H29zM38,18H39V19H38zM41,18H42V19H41zM42,18H43V19H42zM43,18H44V19H43zM45,18H46V19H45zM50,18H51V19H50zM52,18H53V19H52zM53,18H54V19H53zM55,18H56V19H55zM57,18H58V19H57zM59,18H60V19H59zM5,19H6V20H5zM11,19H12V20H11zM13,19H14V20H13zM15,19H16V20H15zM17,19H18V20H17zM18,19H19V20H18zM20,19H21V20H20zM22,19H23V20H22zM26,19H27V20H26zM27,19H28V20H27zM31,19H32V20H31zM32,19H33V20H32zM34,19H35V20H34zM36,19H37V20H36zM37,19H38V20H37zM39,19H40V20H39zM44,19H45V20H44zM45,19H46V20H45zM46,19H47V20H46zM48,19H49V20H48zM49,19H50V20H49zM52,19H53V20H52zM53,19H54V20H53zM54,19H55V20H54zM55,19H56V20H55zM56,19H57V20H56zM57,19H58V20H57zM58,19H59V20H58zM60,19H61V20H60zM6,20H7V21H6zM7,20H8V21H7zM8,20H9V21H8zM10,20H11V21H10zM11,20H12V21H11zM12,20H13V21H12zM13,20H14V21H13zM14,20H15V21H14zM16,20H17V21H16zM18,20H19V21H18zM20,20H21V21H20zM21,20H22V21H21zM22,20H23V21H22zM24,20H25V21H24zM25,20H26V21H25zM27,20H28V21H27zM29,20H30V21H29zM30,20H31V21H30zM35,20H36V21H35zM37,20H38V21H37zM40,20H41V21H40zM41,20H42V21H41zM43,20H44V21H43zM46,20H47V21H46zM47,20H48V21H47zM50,20H51V21H50zM51,20H52V21H51zM53,20H54V21H53zM54,20H55V21H54zM4,21H5V22H4zM5,21H6V22H5zM6,21H7V22H6zM7,21H8V22H7zM8,21H9V22H8zM9,21H10V22H9zM11,21H12V22H11zM13,21H14V22H13zM19,21H20V22H19zM20,21H21V22H20zM21,21H22V22H21zM23,21H24V22H23zM26,21H27V22H26zM27,21H28V22H27zM28,21H29V22H28zM29,21H30V22H29zM31,21H32V22H31zM32,21H33V22H32zM34,21H35V22H34zM35,21H36V22H35zM36,21H37V22H36zM37,21H38V22H37zM39,21H40V22H39zM43,21H44V22H43zM46,21H47V22H46zM52,21H53V22H52zM53,21H54V22H53zM55,21H56V22H55zM59,21H60V22H59zM60,21H61V22H60zM4,22H5V23H4zM7,22H8V23H7zM8,22H9V23H8zM10,22H11V23H10zM16,22H17V23H16zM17,22H18V23H17zM20,22H21V23H20zM21,22H22V23H21zM25,22H26V23H25zM26,22H27V23H26zM27,22H28V23H27zM28,22H29V23H28zM29,22H30V23H29zM30,22H31V23H30zM31,22H32V23H31zM35,22H36V23H35zM38,22H39V23H38zM39,22H40V23H39zM40,22H41V23H40zM41,22H42V23H41zM42,22H43V23H42zM45,22H46V23H45zM48,22H49V23H48zM49,22H50V23H49zM50,22H51V23H50zM52,22H53V23H52zM54,22H55V23H54zM55,22H56V23H55zM56,22H57V23H56zM5,23H6V24H5zM6,23H7V24H6zM7,23H8V24H7zM8,23H9V24H8zM12,23H13V24H12zM13,23H14V24H13zM15,23H16V24H15zM16,23H17V24H16zM17,23H18V24H17zM18,23H19V24H18zM20,23H21V24H20zM22,23H23V24H22zM23,23H24V24H23zM24,23H25V24H24zM25,23H26V24H25zM26,23H27V24H26zM27,23H28V24H27zM28,23H29V24H28zM32,23H33V24H32zM33,23H34V24H33zM34,23H35V24H34zM35,23H36V24H35zM36,23H37V24H36zM37,23H38V24H37zM41,23H42V24H41zM43,23H44V24H43zM44,23H45V24H44zM46,23H47V24H46zM47,23H48V24H47zM48,23H49V24H48zM49,23H50V24H49zM52,23H53V24H52zM55,23H56V24H55zM56,23H57V24H56zM58,23H59V24H58zM60,23H61V24H60zM4,24H5V25H4zM5,24H6V25H5zM9,24H10V25H9zM10,24H11V25H10zM12,24H13V25H12zM14,24H15V25H14zM16,24H17V25H16zM19,24H20V25H19zM22,24H23V25H22zM24,24H25V25H24zM25,24H26V25H25zM26,24H27V25H26zM29,24H30V25H29zM30,24H31V25H30zM31,24H32V25H31zM33,24H34V25H33zM39,24H40V25H39zM40,24H41V25H40zM41,24H42V25H41zM42,24H43V25H42zM45,24H46V25H45zM50,24H51V25H50zM51,24H52V25H51zM53,24H54V25H53zM4,25H5V26H4zM7,25H8V26H7zM14,25H15V26H14zM15,25H16V26H15zM16,25H17V26H16zM17,25H18V26H17zM18,25H19V26H18zM19,25H20V26H19zM21,25H22V26H21zM22,25H23V26H22zM23,25H24V26H23zM27,25H28V26H27zM28,25H29V26H28zM32,25H33V26H32zM33,25H34V26H33zM34,25H35V26H34zM37,25H38V26H37zM39,25H40V26H39zM40,25H41V26H40zM41,25H42V26H41zM43,25H44V26H43zM44,25H45V26H44zM45,25H46V26H45zM46,25H47V26H46zM47,25H48V26H47zM49,25H50V26H49zM52,25H53V26H52zM55,25H56V26H55zM56,25H57V26H56zM59,25H60V26H59zM60,25H61V26H60zM5,26H6V27H5zM7,26H8V27H7zM8,26H9V27H8zM10,26H11V27H10zM11,26H12V27H11zM15,26H16V27H15zM16,26H17V27H16zM17,26H18V27H17zM21,26H22V27H21zM22,26H23V27H22zM23,26H24V27H23zM24,26H25V27H24zM26,26H27V27H26zM27,26H28V27H27zM30,26H31V27H30zM31,26H32V27H31zM33,26H34V27H33zM35,26H36V27H35zM38,26H39V27H38zM39,26H40V27H39zM40,26H41V27H40zM43,26H44V27H43zM44,26H45V27H44zM48,26H49V27H48zM50,26H51V27H50zM53,26H54V27H53zM54,26H55V27H54zM55,26H56V27H55zM57,26H58V27H57zM6,27H7V28H6zM7,27H8V28H7zM8,27H9V28H8zM11,27H12V28H11zM13,27H14V28H13zM15,27H16V28H15zM17,27H18V28H17zM18,27H19V28H18zM20,27H21V28H20zM21,27H22V28H21zM22,27H23V28H22zM23,27H24V28H23zM24,27H25V28H24zM25,27H26V28H25zM26,27H27V28H26zM27,27H28V28H27zM28,27H29V28H28zM29,27H30V28H29zM31,27H32V28H31zM32,27H33V28H32zM33,27H34V28H33zM34,27H35V28H34zM35,27H36V28H35zM36,27H37V28H36zM39,27H40V28H39zM44,27H45V28H44zM46,27H47V28H46zM48,27H49V28H48zM50,27H51V28H50zM52,27H53V28H52zM54,27H55V28H54zM55,27H56V28H55zM58,27H59V28H58zM59,27H60V28H59zM4,28H5V29H4zM5,28H6V29H5zM7,28H8V29H7zM8,28H9V29H8zM9,28H10V29H9zM10,28H11V29H10zM12,28H13V29H12zM13,28H14V29H13zM15,28H16V29H15zM16,28H17V29H16zM17,28H18V29H17zM19,28H20V29H19zM20,28H21V29H20zM25,28H26V29H25zM26,28H27V29H26zM29,28H30V29H29zM30,28H31V29H30zM31,28H32V29H31zM35,28H36V29H35zM37,28H38V29H37zM38,28H39V29H38zM40,28H41V29H40zM41,28H42V29H41zM43,28H44V29H43zM47,28H48V29H47zM49,28H50V29H49zM50,28H51V29H50zM54,28H55V29H54zM59,28H60V29H59zM4,29H5V30H4zM5,29H6V30H5zM6,29H7V30H6zM7,29H8V30H7zM9,29H10V30H9zM11,29H12V30H11zM13,29H14V30H13zM14,29H15V30H14zM16,29H17V30H16zM17,29H18V30H17zM18,29H19V30H18zM19,29H20V30H19zM20,29H21V30H20zM25,29H26V30H25zM27,29H28V30H27zM28,29H29V30H28zM31,29H32V30H31zM34,29H35V30H34zM37,29H38V30H37zM41,29H42V30H41zM44,29H45V30H44zM45,29H46V30H45zM46,29H47V30H46zM48,29H49V30H48zM51,29H52V30H51zM52,29H53V30H52zM57,29H58V30H57zM58,29H59V30H58zM59,29H60V30H59zM4,30H5V31H4zM8,30H9V31H8zM9,30H10V31H9zM10,30H11V31H10zM11,30H12V31H11zM12,30H13V31H12zM15,30H16V31H15zM16,30H17V31H16zM17,30H18V31H17zM19,30H20V31H19zM20,30H21V31H20zM23,30H24V31H23zM25,30H26V31H25zM29,30H30V31H29zM30,30H31V31H30zM31,30H32V31H31zM32,30H33V31H32zM33,30H34V31H33zM34,30H35V31H34zM35,30H36V31H35zM38,30H39V31H38zM40,30H41V31H40zM42,30H43V31H42zM43,30H44V31H43zM49,30H50V31H49zM50,30H51V31H50zM52,30H53V31H52zM53,30H54V31H53zM54,30H55V31H54zM55,30H56V31H55zM56,30H57V31H56zM58,30H59V31H58zM59,30H60V31H59zM5,31H6V32H5zM8,31H9V32H8zM12,31H13V32H12zM13,31H14V32H13zM14,31H15V32H14zM15,31H16V32H15zM16,31H17V32H16zM17,31H18V32H17zM18,31H19V32H18zM20,31H21V32H20zM21,31H22V32H21zM22,31H23V32H22zM25,31H26V32H25zM26,31H27V32H26zM28,31H29V32H28zM30,31H31V32H30zM34,31H35V32H34zM36,31H37V32H36zM37,31H38V32H37zM38,31H39V32H38zM39,31H40V32H39zM41,31H42V32H41zM44,31H45V32H44zM49,31H50V32H49zM51,31H52V32H51zM52,31H53V32H52zM56,31H57V32H56zM57,31H58V32H57zM58,31H59V32H58zM59,31H60V32H59zM60,31H61V32H60zM4,32H5V33H4zM8,32H9V33H8zM10,32H11V33H10zM12,32H13V33H12zM13,32H14V33H13zM17,32H18V33H17zM22,32H23V33H22zM25,32H26V33H25zM27,32H28V33H27zM30,32H31V33H30zM32,32H33V33H32zM34,32H35V33H34zM35,32H36V33H35zM37,32H38V33H37zM40,32H41V33H40zM41,32H42V33H41zM42,32H43V33H42zM43,32H44V33H43zM45,32H46V33H45zM46,32H47V33H46zM47,32H48V33H47zM49,32H50V33H49zM52,32H53V33H52zM54,32H55V33H54zM56,32H57V33H56zM4,33H5V34H4zM6,33H7V34H6zM8,33H9V34H8zM12,33H13V34H12zM13,33H14V34H13zM15,33H16V34H15zM19,33H20V34H19zM21,33H22V34H21zM23,33H24V34H23zM26,33H27V34H26zM28,33H29V34H28zM30,33H31V34H30zM34,33H35V34H34zM35,33H36V34H35zM37,33H38V34H37zM39,33H40V34H39zM40,33H41V34H40zM43,33H44V34H43zM44,33H45V34H44zM46,33H47V34H46zM48,33H49V34H48zM49,33H50V34H49zM52,33H53V34H52zM56,33H57V34H56zM60,33H61V34H60zM4,34H5V35H4zM8,34H9V35H8zM9,34H10V35H9zM10,34H11V35H10zM11,34H12V35H11zM12,34H13V35H12zM13,34H14V35H13zM15,34H16V35H15zM16,34H17V35H16zM17,34H18V35H17zM20,34H21V35H20zM22,34H23V35H22zM25,34H26V35H25zM26,34H27V35H26zM27,34H28V35H27zM29,34H30V35H29zM30,34H31V35H30zM31,34H32V35H31zM32,34H33V35H32zM33,34H34V35H33zM34,34H35V35H34zM38,34H39V35H38zM39,34H40V35H39zM40,34H41V35H40zM41,34H42V35H41zM42,34H43V35H42zM45,34H46V35H45zM47,34H48V35H47zM48,34H49V35H48zM49,34H50V35H49zM50,34H51V35H50zM52,34H53V35H52zM53,34H54V35H53zM54,34H55V35H54zM55,34H56V35H55zM56,34H57V35H56zM57,34H58V35H57zM59,34H60V35H59zM5,35H6V36H5zM6,35H7V36H6zM8,35H9V36H8zM11,35H12V36H11zM14,35H15V36H14zM16,35H17V36H16zM19,35H20V36H19zM20,35H21V36H20zM22,35H23V36H22zM24,35H25V36H24zM27,35H28V36H27zM28,35H29V36H28zM30,35H31V36H30zM32,35H33V36H32zM33,35H34V36H33zM35,35H36V36H35zM36,35H37V36H36zM39,35H40V36H39zM40,35H41V36H40zM43,35H44V36H43zM44,35H45V36H44zM46,35H47V36H46zM48,35H49V36H48zM49,35H50V36H49zM51,35H52V36H51zM54,35H55V36H54zM55,35H56V36H55zM57,35H58V36H57zM58,35H59V36H58zM60,35H61V36H60zM4,36H5V37H4zM7,36H8V37H7zM10,36H11V37H10zM12,36H13V37H12zM13,36H14V37H13zM14,36H15V37H14zM16,36H17V37H16zM17,36H18V37H17zM22,36H23V37H22zM26,36H27V37H26zM28,36H29V37H28zM30,36H31V37H30zM31,36H32V37H31zM32,36H33V37H32zM33,36H34V37H33zM34,36H35V37H34zM37,36H38V37H37zM39,36H40V37H39zM40,36H41V37H40zM47,36H48V37H47zM49,36H50V37H49zM52,36H53V37H52zM56,36H57V37H56zM7,37H8V38H7zM8,37H9V38H8zM11,37H12V38H11zM12,37H13V38H12zM13,37H14V38H13zM18,37H19V38H18zM19,37H20V38H19zM20,37H21V38H20zM21,37H22V38H21zM22,37H23V38H22zM23,37H24V38H23zM24,37H25V38H24zM25,37H26V38H25zM28,37H29V38H28zM34,37H35V38H34zM35,37H36V38H35zM36,37H37V38H36zM37,37H38V38H37zM40,37H41V38H40zM41,37H42V38H41zM44,37H45V38H44zM45,37H46V38H45zM46,37H47V38H46zM47,37H48V38H47zM48,37H49V38H48zM49,37H50V38H49zM54,37H55V38H54zM55,37H56V38H55zM57,37H58V38H57zM58,37H59V38H58zM59,37H60V38H59zM5,38H6V39H5zM7,38H8V39H7zM8,38H9V39H8zM10,38H11V39H10zM11,38H12V39H11zM12,38H13V39H12zM16,38H17V39H16zM17,38H18V39H17zM18,38H19V39H18zM19,38H20V39H19zM20,38H21V39H20zM26,38H27V39H26zM27,38H28V39H27zM28,38H29V39H28zM29,38H30V39H29zM30,38H31V39H30zM32,38H33V39H32zM34,38H35V39H34zM35,38H36V39H35zM38,38H39V39H38zM42,38H43V39H42zM45,38H46V39H45zM47,38H48V39H47zM50,38H51V39H50zM53,38H54V39H53zM55,38H56V39H55zM56,38H57V39H56zM58,38H59V39H58zM59,38H60V39H59zM60,38H61V39H60zM8,39H9V40H8zM9,39H10V40H9zM15,39H16V40H15zM17,39H18V40H17zM19,39H20V40H19zM21,39H22V40H21zM23,39H24V40H23zM24,39H25V40H24zM25,39H26V40H25zM27,39H28V40H27zM35,39H36V40H35zM36,39H37V40H36zM39,39H40V40H39zM44,39H45V40H44zM45,39H46V40H45zM46,39H47V40H46zM47,39H48V40H47zM48,39H49V40H48zM49,39H50V40H49zM51,39H52V40H51zM52,39H53V40H52zM54,39H55V40H54zM58,39H59V40H58zM5,40H6V41H5zM7,40H8V41H7zM8,40H9V41H8zM10,40H11V41H10zM12,40H13V41H12zM13,40H14V41H13zM16,40H17V41H16zM18,40H19V41H18zM19,40H20V41H19zM22,40H23V41H22zM23,40H24V41H23zM25,40H26V41H25zM29,40H30V41H29zM30,40H31V41H30zM32,40H33V41H32zM34,40H35V41H34zM37,40H38V41H37zM38,40H39V41H38zM40,40H41V41H40zM41,40H42V41H41zM42,40H43V41H42zM43,40H44V41H43zM46,40H47V41H46zM50,40H51V41H50zM52,40H53V41H52zM55,40H56V41H55zM56,40H57V41H56zM57,40H58V41H57zM6,41H7V42H6zM11,41H12V42H11zM14,41H15V42H14zM16,41H17V42H16zM17,41H18V42H17zM19,41H20V42H19zM20,41H21V42H20zM21,41H22V42H21zM22,41H23V42H22zM25,41H26V42H25zM27,41H28V42H27zM28,41H29V42H28zM30,41H31V42H30zM31,41H32V42H31zM33,41H34V42H33zM34,41H35V42H34zM37,41H38V42H37zM39,41H40V42H39zM40,41H41V42H40zM46,41H47V42H46zM49,41H50V42H49zM51,41H52V42H51zM52,41H53V42H52zM55,41H56V42H55zM58,41H59V42H58zM60,41H61V42H60zM4,42H5V43H4zM5,42H6V43H5zM6,42H7V43H6zM7,42H8V43H7zM9,42H10V43H9zM10,42H11V43H10zM11,42H12V43H11zM14,42H15V43H14zM16,42H17V43H16zM18,42H19V43H18zM19,42H20V43H19zM20,42H21V43H20zM22,42H23V43H22zM23,42H24V43H23zM29,42H30V43H29zM31,42H32V43H31zM32,42H33V43H32zM34,42H35V43H34zM36,42H37V43H36zM38,42H39V43H38zM41,42H42V43H41zM42,42H43V43H42zM45,42H46V43H45zM48,42H49V43H48zM50,42H51V43H50zM58,42H59V43H58zM6,43H7V44H6zM7,43H8V44H7zM11,43H12V44H11zM12,43H13V44H12zM15,43H16V44H15zM19,43H20V44H19zM20,43H21V44H20zM22,43H23V44H22zM25,43H26V44H25zM28,43H29V44H28zM32,43H33V44H32zM33,43H34V44H33zM36,43H37V44H36zM39,43H40V44H39zM41,43H42V44H41zM42,43H43V44H42zM43,43H44V44H43zM44,43H45V44H44zM45,43H46V44H45zM46,43H47V44H46zM47,43H48V44H47zM48,43H49V44H48zM51,43H52V44H51zM52,43H53V44H52zM53,43H54V44H53zM54,43H55V44H54zM55,43H56V44H55zM56,43H57V44H56zM58,43H59V44H58zM59,43H60V44H59zM60,43H61V44H60zM5,44H6V45H5zM7,44H8V45H7zM10,44H11V45H10zM11,44H12V45H11zM13,44H14V45H13zM14,44H15V45H14zM15,44H16V45H15zM16,44H17V45H16zM19,44H20V45H19zM20,44H21V45H20zM22,44H23V45H22zM23,44H24V45H23zM27,44H28V45H27zM30,44H31V45H30zM31,44H32V45H31zM32,44H33V45H32zM33,44H34V45H33zM35,44H36V45H35zM40,44H41V45H40zM41,44H42V45H41zM45,44H46V45H45zM46,44H47V45H46zM53,44H54V45H53zM54,44H55V45H54zM56,44H57V45H56zM5,45H6V46H5zM6,45H7V46H6zM7,45H8V46H7zM9,45H10V46H9zM14,45H15V46H14zM15,45H16V46H15zM16,45H17V46H16zM17,45H18V46H17zM19,45H20V46H19zM28,45H29V46H28zM30,45H31V46H30zM31,45H32V46H31zM34,45H35V46H34zM37,45H38V46H37zM39,45H40V46H39zM41,45H42V46H41zM43,45H44V46H43zM44,45H45V46H44zM45,45H46V46H45zM46,45H47V46H46zM52,45H53V46H52zM53,45H54V46H53zM54,45H55V46H54zM55,45H56V46H55zM58,45H59V46H58zM60,45H61V46H60zM4,46H5V47H4zM6,46H7V47H6zM9,46H10V47H9zM10,46H11V47H10zM18,46H19V47H18zM19,46H20V47H19zM20,46H21V47H20zM22,46H23V47H22zM23,46H24V47H23zM25,46H26V47H25zM26,46H27V47H26zM27,46H28V47H27zM28,46H29V47H28zM29,46H30V47H29zM31,46H32V47H31zM34,46H35V47H34zM36,46H37V47H36zM38,46H39V47H38zM40,46H41V47H40zM49,46H50V47H49zM50,46H51V47H50zM52,46H53V47H52zM53,46H54V47H53zM56,46H57V47H56zM59,46H60V47H59zM4,47H5V48H4zM6,47H7V48H6zM8,47H9V48H8zM11,47H12V48H11zM12,47H13V48H12zM15,47H16V48H15zM18,47H19V48H18zM19,47H20V48H19zM20,47H21V48H20zM21,47H22V48H21zM23,47H24V48H23zM24,47H25V48H24zM25,47H26V48H25zM27,47H28V48H27zM28,47H29V48H28zM30,47H31V48H30zM31,47H32V48H31zM35,47H36V48H35zM36,47H37V48H36zM37,47H38V48H37zM39,47H40V48H39zM41,47H42V48H41zM43,47H44V48H43zM44,47H45V48H44zM45,47H46V48H45zM46,47H47V48H46zM47,47H48V48H47zM48,47H49V48H48zM51,47H52V48H51zM52,47H53V48H52zM54,47H55V48H54zM57,47H58V48H57zM58,47H59V48H58zM4,48H5V49H4zM6,48H7V49H6zM7,48H8V49H7zM8,48H9V49H8zM9,48H10V49H9zM10,48H11V49H10zM11,48H12V49H11zM12,48H13V49H12zM15,48H16V49H15zM19,48H20V49H19zM23,48H24V49H23zM26,48H27V49H26zM31,48H32V49H31zM32,48H33V49H32zM34,48H35V49H34zM35,48H36V49H35zM40,48H41V49H40zM46,48H47V49H46zM50,48H51V49H50zM52,48H53V49H52zM53,48H54V49H53zM56,48H57V49H56zM57,48H58V49H57zM4,49H5V50H4zM9,49H10V50H9zM13,49H14V50H13zM14,49H15V50H14zM20,49H21V50H20zM21,49H22V50H21zM22,49H23V50H22zM27,49H28V50H27zM28,49H29V50H28zM34,49H35V50H34zM39,49H40V50H39zM43,49H44V50H43zM46,49H47V50H46zM49,49H50V50H49zM51,49H52V50H51zM53,49H54V50H53zM54,49H55V50H54zM57,49H58V50H57zM58,49H59V50H58zM60,49H61V50H60zM4,50H5V51H4zM6,50H7V51H6zM9,50H10V51H9zM10,50H11V51H10zM11,50H12V51H11zM14,50H15V51H14zM15,50H16V51H15zM17,50H18V51H17zM19,50H20V51H19zM20,50H21V51H20zM23,50H24V51H23zM25,50H26V51H25zM26,50H27V51H26zM27,50H28V51H27zM28,50H29V51H28zM29,50H30V51H29zM30,50H31V51H30zM33,50H34V51H33zM34,50H35V51H34zM37,50H38V51H37zM38,50H39V51H38zM40,50H41V51H40zM41,50H42V51H41zM42,50H43V51H42zM43,50H44V51H43zM45,50H46V51H45zM47,50H48V51H47zM50,50H51V51H50zM53,50H54V51H53zM55,50H56V51H55zM57,50H58V51H57zM58,50H59V51H58zM59,50H60V51H59zM4,51H5V52H4zM5,51H6V52H5zM6,51H7V52H6zM7,51H8V52H7zM8,51H9V52H8zM11,51H12V52H11zM12,51H13V52H12zM13,51H14V52H13zM18,51H19V52H18zM19,51H20V52H19zM20,51H21V52H20zM22,51H23V52H22zM24,51H25V52H24zM26,51H27V52H26zM27,51H28V52H27zM28,51H29V52H28zM30,51H31V52H30zM31,51H32V52H31zM32,51H33V52H32zM36,51H37V52H36zM37,51H38V52H37zM38,51H39V52H38zM41,51H42V52H41zM44,51H45V52H44zM45,51H46V52H45zM46,51H47V52H46zM48,51H49V52H48zM49,51H50V52H49zM51,51H52V52H51zM52,51H53V52H52zM54,51H55V52H54zM55,51H56V52H55zM58,51H59V52H58zM59,51H60V52H59zM10,52H11V53H10zM14,52H15V53H14zM16,52H17V53H16zM19,52H20V53H19zM20,52H21V53H20zM21,52H22V53H21zM27,52H28V53H27zM30,52H31V53H30zM31,52H32V53H31zM32,52H33V53H32zM33,52H34V53H33zM34,52H35V53H34zM35,52H36V53H35zM39,52H40V53H39zM40,52H41V53H40zM42,52H43V53H42zM43,52H44V53H43zM47,52H48V53H47zM49,52H50V53H49zM50,52H51V53H50zM52,52H53V53H52zM53,52H54V53H53zM54,52H55V53H54zM55,52H56V53H55zM56,52H57V53H56zM57,52H58V53H57zM60,52H61V53H60zM12,53H13V54H12zM13,53H14V54H13zM14,53H15V54H14zM17,53H18V54H17zM18,53H19V54H18zM19,53H20V54H19zM24,53H25V54H24zM26,53H27V54H26zM28,53H29V54H28zM29,53H30V54H29zM30,53H31V54H30zM34,53H35V54H34zM36,53H37V54H36zM39,53H40V54H39zM40,53H41V54H40zM41,53H42V54H41zM43,53H44V54H43zM46,53H47V54H46zM47,53H48V54H47zM48,53H49V54H48zM49,53H50V54H49zM51,53H52V54H51zM52,53H53V54H52zM56,53H57V54H56zM57,53H58V54H57zM58,53H59V54H58zM60,53H61V54H60zM4,54H5V55H4zM5,54H6V55H5zM6,54H7V55H6zM7,54H8V55H7zM8,54H9V55H8zM9,54H10V55H9zM10,54H11V55H10zM14,54H15V55H14zM15,54H16V55H15zM20,54H21V55H20zM24,54H25V55H24zM28,54H29V55H28zM29,54H30V55H29zM30,54H31V55H30zM32,54H33V55H32zM34,54H35V55H34zM40,54H41V55H40zM42,54H43V55H42zM43,54H44V55H43zM45,54H46V55H45zM47,54H48V55H47zM50,54H51V55H50zM52,54H53V55H52zM54,54H55V55H54zM56,54H57V55H56zM57,54H58V55H57zM58,54H59V55H58zM59,54H60V55H59zM4,55H5V56H4zM10,55H11V56H10zM12,55H13V56H12zM14,55H15V56H14zM15,55H16V56H15zM19,55H20V56H19zM20,55H21V56H20zM21,55H22V56H21zM22,55H23V56H22zM25,55H26V56H25zM27,55H28V56H27zM28,55H29V56H28zM30,55H31V56H30zM34,55H35V56H34zM35,55H36V56H35zM36,55H37V56H36zM37,55H38V56H37zM40,55H41V56H40zM41,55H42V56H41zM44,55H45V56H44zM47,55H48V56H47zM48,55H49V56H48zM49,55H50V56H49zM52,55H53V56H52zM56,55H57V56H56zM57,55H58V56H57zM58,55H59V56H58zM59,55H60V56H59zM4,56H5V57H4zM6,56H7V57H6zM7,56H8V57H7zM8,56H9V57H8zM10,56H11V57H10zM12,56H13V57H12zM16,56H17V57H16zM17,56H18V57H17zM18,56H19V57H18zM21,56H22V57H21zM22,56H23V57H22zM23,56H24V57H23zM25,56H26V57H25zM27,56H28V57H27zM29,56H30V57H29zM30,56H31V57H30zM31,56H32V57H31zM32,56H33V57H32zM33,56H34V57H33zM34,56H35V57H34zM39,56H40V57H39zM40,56H41V57H40zM43,56H44V57H43zM45,56H46V57H45zM46,56H47V57H46zM49,56H50V57H49zM50,56H51V57H50zM52,56H53V57H52zM53,56H54V57H53zM54,56H55V57H54zM55,56H56V57H55zM56,56H57V57H56zM57,56H58V57H57zM4,57H5V58H4zM6,57H7V58H6zM7,57H8V58H7zM8,57H9V58H8zM10,57H11V58H10zM12,57H13V58H12zM21,57H22V58H21zM23,57H24V58H23zM27,57H28V58H27zM28,57H29V58H28zM30,57H31V58H30zM31,57H32V58H31zM32,57H33V58H32zM33,57H34V58H33zM34,57H35V58H34zM35,57H36V58H35zM37,57H38V58H37zM44,57H45V58H44zM45,57H46V58H45zM46,57H47V58H46zM47,57H48V58H47zM49,57H50V58H49zM56,57H57V58H56zM57,57H58V58H57zM58,57H59V58H58zM4,58H5V59H4zM6,58H7V59H6zM7,58H8V59H7zM8,58H9V59H8zM10,58H11V59H10zM12,58H13V59H12zM17,58H18V59H17zM19,58H20V59H19zM21,58H22V59H21zM22,58H23V59H22zM24,58H25V59H24zM29,58H30V59H29zM31,58H32V59H31zM33,58H34V59H33zM34,58H35V59H34zM36,58H37V59H36zM38,58H39V59H38zM40,58H41V59H40zM41,58H42V59H41zM42,58H43V59H42zM43,58H44V59H43zM47,58H48V59H47zM50,58H51V59H50zM51,58H52V59H51zM52,58H53V59H52zM55,58H56V59H55zM57,58H58V59H57zM4,59H5V60H4zM10,59H11V60H10zM15,59H16V60H15zM16,59H17V60H16zM17,59H18V60H17zM19,59H20V60H19zM21,59H22V60H21zM25,59H26V60H25zM26,59H27V60H26zM28,59H29V60H28zM31,59H32V60H31zM32,59H33V60H32zM34,59H35V60H34zM35,59H36V60H35zM36,59H37V60H36zM37,59H38V60H37zM39,59H40V60H39zM41,59H42V60H41zM43,59H44V60H43zM44,59H45V60H44zM47,59H48V60H47zM48,59H49V60H48zM49,59H50V60H49zM52,59H53V60H52zM55,59H56V60H55zM56,59H57V60H56zM58,59H59V60H58zM4,60H5V61H4zM5,60H6V61H5zM6,60H7V61H6zM7,60H8V61H7zM8,60H9V61H8zM9,60H10V61H9zM10,60H11V61H10zM12,60H13V61H12zM13,60H14V61H13zM20,60H21V61H20zM23,60H24V61H23zM24,60H25V61H24zM25,60H26V61H25zM27,60H28V61H27zM29,60H30V61H29zM31,60H32V61H31zM33,60H34V61H33zM37,60H38V61H37zM38,60H39V61H38zM40,60H41V61H40zM41,60H42V61H41zM42,60H43V61H42zM46,60H47V61H46zM49,60H50V61H49zM51,60H52V61H51zM52,60H53V61H52zM54,60H55V61H54zM55,60H56V61H55zM57,60H58V61H57zM59,60H60V61H59z" id="qr-path" fill="#000000" fill-opacity="1" fill-rule="nonzero" stroke="none" /></svg>